HIERARCHY
ROOT Hips
{
	OFFSET 0.000000 0.000000 0.000000 
	CHANNELS 6 Xposition Yposition Zposition Zrotation Yrotation Xrotation
	JOINT LeftUpLeg
	{
		OFFSET 1.363060 -1.794630 0.839290 
		CHANNELS 3 Zrotation Yrotation Xrotation
		JOINT LeftLeg
		{
			OFFSET 2.448110 -6.726130 0.000000 
			CHANNELS 3 Zrotation Yrotation Xrotation
			JOINT LeftFoot
			{
				OFFSET 2.562200 -7.039590 0.000000 
				CHANNELS 3 Zrotation Yrotation Xrotation
				JOINT LeftToeBase
				{
					OFFSET 0.157640 -0.433110 2.322550 
					CHANNELS 3 Zrotation Yrotation Xrotation
					End Site
					{
						OFFSET 0.000000 0.000000 0.000000 
					}
				}
			}
		}
	}
	JOINT RightUpLeg
	{
		OFFSET -1.305520 -1.794630 0.839290 
		CHANNELS 3 Zrotation Yrotation Xrotation
		JOINT RightLeg
		{
			OFFSET -2.542530 -6.985550 0.000000 
			CHANNELS 3 Zrotation Yrotation Xrotation
			JOINT RightFoot
			{
				OFFSET -2.568260 -7.056230 0.000000 
				CHANNELS 3 Zrotation Yrotation Xrotation
				JOINT RightToeBase
				{
					OFFSET -0.164730 -0.452590 2.363150 
					CHANNELS 3 Zrotation Yrotation Xrotation
					End Site
					{
						OFFSET 0.000000 0.000000 0.000000 
					}
				}
			}
		}
	}
	JOINT Spine
	{
		OFFSET 0.028270 2.035590 -0.193380 
		CHANNELS 3 Zrotation Yrotation Xrotation
		JOINT Spine1
		{
			OFFSET 0.056720 2.048850 -0.042750 
			CHANNELS 3 Zrotation Yrotation Xrotation
			JOINT Neck1
			{
				OFFSET -0.054170 1.746240 0.172020 
				CHANNELS 3 Zrotation Yrotation Xrotation
				JOINT Head
				{
					OFFSET 0.104070 1.761360 -0.123970 
					CHANNELS 3 Zrotation Yrotation Xrotation
					End Site
					{
						OFFSET 0.000000 0.000000 0.000000 
					}
				}
			}
			JOINT LeftArm
			{
				OFFSET 3.362410 1.200890 -0.311210 
				CHANNELS 3 Zrotation Yrotation Xrotation
				JOINT LeftForeArm
				{
					OFFSET 4.983000 -0.000000 -0.000000 
					CHANNELS 3 Zrotation Yrotation Xrotation
					JOINT LeftHand
					{
						OFFSET 3.483560 -0.000000 -0.000000 
						CHANNELS 3 Zrotation Yrotation Xrotation
						JOINT LeftHandIndex1
						{
							OFFSET 0.715260 -0.000000 -0.000000 
							CHANNELS 3 Zrotation Yrotation Xrotation
							End Site
							{
								OFFSET 0.000000 0.000000 0.000000 
							}
						}
					}
				}
			}
			JOINT RightArm
			{
				OFFSET -3.136600 1.374050 -0.404650 
				CHANNELS 3 Zrotation Yrotation Xrotation
				JOINT RightForeArm
				{
					OFFSET -5.241900 -0.000000 -0.000000 
					CHANNELS 3 Zrotation Yrotation Xrotation
					JOINT RightHand
					{
						OFFSET -3.444170 -0.000000 -0.000000 
						CHANNELS 3 Zrotation Yrotation Xrotation
						JOINT RightHandIndex1
						{
							OFFSET -0.622530 -0.000000 -0.000000 
							CHANNELS 3 Zrotation Yrotation Xrotation
							End Site
							{
								OFFSET 0.000000 0.000000 0.000000 
							}
						}
					}
				}
			}
		}
	}
}
MOTION
Frames: 18
Frame Time: 0.041667
24.323104 16.712142 48.191375 -173.379678 -13.805932 -153.921420 -4.035748 2.074813 -62.568344 6.638457 19.104521 46.648403 0.513764 4.061816 19.445387 0.019400 -0.899700 -2.472900 -0.129397 7.122174 -7.012749 -0.606605 -8.757740 16.908831 -5.325977 -35.648259 60.170624 -0.389000 -4.005000 11.090700 -1.058456 9.041448 -5.249945 -7.191322 4.994802 -10.593111 5.100244 -5.883519 -5.152300 2.257100 -2.995000 0.086000 -42.807488 48.337795 75.948526 90.374835 -64.107005 -70.086552 -0.988914 -1.868298 -11.887877 -7.125000 0.000000 0.000000 83.816571 -1.546527 40.716602 -120.498647 53.668198 -92.392783 2.028949 -0.104685 3.194171 7.125000 0.000000 0.000000 
24.199305 16.770933 47.842816 -174.034770 -15.528869 -153.552235 -4.309049 1.163475 -61.895336 6.799825 19.242365 46.912581 -0.214202 5.591613 19.055160 0.000400 0.127100 0.349100 0.859493 4.568580 -8.391966 -1.786326 -9.719403 19.855015 -4.598422 -35.355003 59.071365 -0.195300 -2.845700 7.849400 -0.943934 8.260380 -5.158628 -6.609100 4.604359 -10.574735 5.175199 -5.872400 -5.811953 2.312400 -3.018200 -0.497900 -45.636399 47.642300 73.970132 87.730674 -63.660697 -67.982599 -1.120948 -1.887375 -12.082115 -7.125000 0.000000 0.000000 83.423665 -1.524510 40.726494 -120.332653 53.770937 -92.306611 2.040069 -0.085320 3.129801 7.125000 0.000000 0.000000 
24.057982 16.835263 47.480465 -174.635954 -16.789414 -153.562011 -4.693519 0.657245 -60.826925 6.608153 19.200834 47.251736 1.021414 2.839892 18.778191 0.019200 0.893500 2.455800 1.710887 2.311256 -9.614061 -2.833294 -10.529306 22.987436 -4.187963 -33.102118 58.172869 -0.015100 0.792300 -2.177500 -0.844978 7.641522 -5.035483 -6.012388 4.291634 -10.462721 5.218542 -5.888504 -6.337858 2.380200 -3.048600 -0.912600 -48.645363 46.775263 72.000325 85.309519 -63.126548 -65.920494 -1.245476 -1.900358 -12.589678 -7.125000 0.000000 0.000000 83.094791 -1.495484 40.794506 -119.834189 53.994081 -91.963207 2.055381 -0.052527 2.821999 7.125000 0.000000 0.000000 
23.915190 16.895862 47.117322 -175.232592 -17.798054 -153.623176 -5.208499 0.423030 -59.668187 6.399461 19.093518 47.477499 2.300304 0.007612 19.130549 0.161300 2.588000 7.133700 2.383423 0.602630 -10.710088 -3.852141 -11.284116 26.050593 -3.502225 -31.228707 56.749483 -0.578000 4.868500 -13.533900 -0.759503 7.103256 -4.901929 -5.469824 4.023839 -10.254696 5.198308 -5.845432 -6.725719 2.334000 -3.067000 -1.258300 -51.709204 45.698392 70.047749 82.865839 -62.501041 -63.750303 -1.371534 -1.890441 -13.216848 -7.125000 0.000000 0.000000 83.074384 -1.530987 40.898665 -119.025677 54.330325 -91.363456 2.084286 -0.011426 2.287721 7.125000 0.000000 0.000000 
23.756569 16.966862 46.739708 -175.885385 -18.524109 -153.658441 -6.137669 0.657433 -58.600829 6.579630 18.992822 47.746023 1.649451 1.419895 18.158279 0.098300 2.021400 5.564900 2.837034 -0.450388 -11.976260 -4.685918 -11.912848 29.132607 -2.875393 -28.340130 55.121600 -1.119300 6.720700 -18.890400 -0.677589 6.621514 -4.782451 -4.858981 3.789031 -9.894192 5.078691 -5.644974 -6.796550 2.176300 -3.017200 -1.312800 -55.210655 44.246646 68.009986 80.452992 -61.748748 -61.433847 -1.482003 -1.789814 -13.562695 -7.125000 0.000000 0.000000 82.754913 -0.866540 40.883415 -115.305908 55.527061 -88.719932 2.145233 0.176609 0.225201 7.125000 0.000000 0.000000 
23.610385 17.017965 46.374530 -176.519399 -19.464235 -153.605158 -6.813010 0.567787 -57.591279 6.580090 18.883278 48.007882 1.931029 0.784802 17.667633 0.141200 2.422000 6.673400 3.355789 -1.711841 -13.295392 -5.749297 -12.657492 32.353522 -1.947045 -27.208104 53.015910 -1.697200 8.204700 -23.337600 -0.613543 6.130019 -4.693794 -4.414030 3.528212 -9.820646 5.042922 -5.574651 -7.097627 2.113200 -3.023100 -1.559600 -57.986311 42.789885 66.465511 78.042103 -60.964027 -59.141664 -1.580234 -1.719715 -13.806618 -7.125000 0.000000 0.000000 82.659241 -0.641911 40.779843 -112.628487 56.255296 -86.816055 2.196161 0.308684 -0.959026 7.125000 0.000000 0.000000 
23.462392 17.063188 46.008448 -177.153863 -20.313991 -153.541354 -7.535526 0.576770 -56.610201 6.591164 18.752055 48.292430 2.248407 0.084530 17.063309 0.171700 2.669600 7.360300 3.767967 -2.752075 -14.711911 -6.866931 -13.399304 35.650535 -0.778313 -26.575525 50.338877 -2.096500 9.064200 -25.996300 -0.567171 5.671717 -4.623171 -4.070955 3.278561 -9.810705 5.017799 -5.500745 -7.365597 2.051900 -3.025900 -1.759500 -60.578813 41.127184 65.079727 75.614017 -60.121898 -56.782429 -1.668390 -1.628543 -13.884151 -7.125000 0.000000 0.000000 82.686410 -0.408863 40.643560 -109.179334 57.004046 -84.352675 2.259036 0.471097 -2.238216 7.125000 0.000000 0.000000 
23.314738 17.100610 45.642931 -177.787109 -21.138945 -153.429249 -8.264553 0.624637 -55.683554 6.621292 18.613407 48.591399 2.534115 -0.533029 16.363406 0.187300 2.787500 7.687600 4.097943 -3.603578 -16.271360 -8.015705 -14.120325 38.989735 0.622956 -26.378866 47.061444 -2.240900 9.350800 -26.899000 -0.536197 5.224691 -4.573626 -3.837298 3.030385 -9.876677 5.015320 -5.429095 -7.621619 2.001300 -3.027500 -1.935000 -62.941766 39.256240 63.861201 73.143676 -59.233079 -54.350126 -1.745668 -1.517777 -13.756712 -7.125000 0.000000 0.000000 82.852038 -0.194485 40.498903 -104.928853 57.654956 -81.294456 2.331892 0.658979 -3.512833 7.125000 0.000000 0.000000 
23.167649 17.126387 45.278544 -178.400989 -21.959501 -153.279185 -8.969767 0.688861 -54.820067 6.681201 18.480617 48.939825 2.810638 -1.118632 15.544456 0.184300 2.765000 7.625300 4.362853 -4.263701 -17.982223 -9.140749 -14.804502 42.388670 2.124318 -26.266991 43.297207 -2.194500 9.259900 -26.611900 -0.516789 4.779694 -4.542911 -3.699501 2.778925 -10.012394 5.044926 -5.359936 -7.875755 1.973800 -3.026100 -2.092000 -65.093332 37.182425 62.775782 70.612512 -58.304055 -51.838498 -1.812176 -1.389765 -13.428363 -7.125000 0.000000 0.000000 83.139570 -0.013911 40.419265 -99.909460 58.056464 -77.624866 2.411999 0.864120 -4.717422 7.125000 0.000000 0.000000 
23.020109 17.144703 44.914158 -178.990929 -22.803902 -153.099496 -9.627754 0.746832 -53.978255 6.757890 18.354251 49.324739 3.142711 -1.804093 14.661179 0.174600 2.691800 7.421700 4.562827 -4.767889 -19.841300 -10.183453 -15.435160 45.795898 3.561507 -25.982955 39.226403 -2.030000 8.928200 -25.571000 -0.504124 4.322050 -4.526176 -3.634940 2.517915 -10.200602 5.111289 -5.292100 -8.133608 1.974700 -3.020900 -2.238200 -67.065180 34.902636 61.787593 68.011821 -57.338189 -49.247400 -1.868800 -1.245517 -12.928595 -7.125000 0.000000 0.000000 83.536305 0.111734 40.447318 -94.280071 58.060029 -73.382420 2.491934 1.069821 -5.766291 7.125000 0.000000 0.000000 
22.872907 17.154652 44.551807 -179.532849 -23.655553 -152.873566 -10.221003 0.799736 -53.204043 6.861221 18.244560 49.758572 3.512709 -2.554996 13.732089 0.159100 2.569600 7.082700 4.705671 -5.115939 -21.864917 -11.106939 -16.008443 49.159346 4.761293 -25.333864 35.081128 -1.838300 8.520900 -24.307800 -0.495676 3.866301 -4.523016 -3.626749 2.254614 -10.426525 5.210799 -5.231401 -8.391251 2.003800 -3.014400 -2.373200 -68.881432 32.422256 60.884398 65.361531 -56.340687 -46.602504 -1.917590 -1.093419 -12.315127 -7.125000 0.000000 0.000000 84.025165 0.149092 40.583895 -88.304827 57.591111 -68.649451 2.571477 1.245630 -6.673246 7.125000 0.000000 0.000000 
22.724688 17.156687 44.190021 179.976437 -24.491253 -152.649188 -10.756000 0.875599 -52.456166 6.999020 18.152583 50.244066 3.867014 -3.257447 12.781875 0.136900 2.384900 6.570700 4.778422 -5.331931 -23.994625 -11.911100 -16.530437 52.412978 5.615515 -24.311785 31.092840 -1.690100 8.188300 -23.287400 -0.482792 3.412839 -4.521468 -3.601574 1.992785 -10.636016 5.333187 -5.162323 -8.640927 2.052700 -3.001300 -2.500800 -70.626920 29.739071 60.005426 62.714334 -55.327990 -43.955088 -1.960303 -0.928844 -11.637311 -7.125000 0.000000 0.000000 84.524519 0.145455 40.761133 -82.217472 56.688959 -63.523633 2.643800 1.373880 -7.480149 7.125000 0.000000 0.000000 
22.576016 17.151712 43.829817 179.529713 -25.313215 -152.436156 -11.235486 0.970432 -51.741792 7.173618 18.082218 50.792162 4.187549 -3.882649 11.849375 0.109600 2.134800 5.878300 4.782514 -5.434774 -26.214743 -12.629099 -17.012151 55.500225 6.124059 -23.066776 27.439130 -1.616200 8.016100 -22.763100 -0.463532 2.964085 -4.521249 -3.542336 1.733687 -10.831424 5.468335 -5.088772 -8.879210 2.113400 -2.984500 -2.621600 -72.312756 26.883289 59.163934 60.156212 -54.318623 -41.395082 -1.997944 -0.763835 -10.950647 -7.125000 0.000000 0.000000 85.002972 0.090333 40.853044 -76.265511 55.485571 -58.199731 2.708468 1.456147 -8.305738 7.125000 0.000000 0.000000 
22.427458 17.138937 43.471197 179.117051 -26.107990 -152.257637 -11.671328 1.093168 -51.055597 7.383791 18.034415 51.420609 4.520481 -4.536557 10.969634 0.082300 1.851000 5.094100 4.712893 -5.462911 -28.490552 -13.280709 -17.456992 58.379893 6.364295 -21.731144 24.109395 -1.665400 8.131200 -23.113400 -0.438855 2.527154 -4.520439 -3.443547 1.481709 -11.009976 5.605538 -5.017462 -9.103528 2.176600 -2.968500 -2.734800 -73.940551 23.892556 58.376400 57.791995 -53.340440 -39.029728 -2.028891 -0.599667 -10.296543 -7.125000 0.000000 0.000000 85.440695 -0.016089 40.730988 -70.568615 54.117221 -52.868576 2.773270 1.501673 -9.207021 7.125000 0.000000 0.000000 
22.279352 17.119265 43.113255 178.719576 -26.876157 -152.129125 -12.069948 1.241913 -50.380305 7.630298 18.008474 52.135888 4.859425 -5.213064 10.156212 0.053400 1.490700 4.100100 4.562455 -5.428390 -30.789928 -13.884273 -17.868494 61.020669 6.410710 -20.424032 21.134409 -1.815400 8.470500 -24.152600 -0.407602 2.098074 -4.517278 -3.283819 1.236375 -11.172763 5.738476 -4.946435 -9.312687 2.237200 -2.953000 -2.845800 -75.539572 20.818041 57.641635 55.724799 -52.427975 -36.956171 -2.052749 -0.441140 -9.703110 -7.125000 0.000000 0.000000 85.819200 -0.184771 40.359336 -65.200885 52.676892 -47.721694 2.850676 1.535913 -10.297945 7.125000 0.000000 0.000000 
22.131245 17.093148 42.754069 178.345803 -27.613072 -152.094156 -12.415001 1.431842 -49.672710 7.910701 18.000469 52.935163 5.216703 -5.943531 9.444025 0.027400 1.068900 2.938500 4.333816 -5.331877 -33.058766 -14.437948 -18.246478 63.398807 6.337137 -19.208639 18.460405 -2.045400 8.960100 -25.670500 -0.372253 1.688031 -4.510336 -3.078298 1.002725 -11.332654 5.860746 -4.879095 -9.506007 2.286100 -2.941000 -2.957800 -77.090394 17.727228 56.995629 54.086169 -51.632241 -35.293834 -2.064792 -0.292554 -9.187283 -7.125000 0.000000 0.000000 86.157922 -0.438112 39.728503 -60.199892 51.206674 -42.903154 2.946678 1.575730 -11.615459 7.125000 0.000000 0.000000 
21.985627 17.059796 42.392961 177.966519 -28.368803 -152.108607 -12.694585 1.613221 -48.950427 8.221395 18.013407 53.815040 5.592871 -6.742485 8.834439 0.006900 0.534900 1.469900 4.049773 -5.216461 -35.322567 -14.945142 -18.591402 65.507453 6.212859 -18.151312 16.025307 -2.354900 9.569200 -27.592600 -0.328691 1.264314 -4.500472 -2.799561 0.767346 -11.468036 5.974659 -4.806449 -9.678073 2.324000 -2.928300 -3.057300 -78.625070 14.649961 56.415134 52.963144 -50.996751 -34.114338 -2.063729 -0.156933 -8.747758 -7.125000 0.000000 0.000000 86.451187 -0.758896 38.895233 -55.580248 49.716282 -38.494356 3.063007 1.637583 -13.147254 7.125000 0.000000 0.000000 
21.842495 17.019321 42.027897 177.588635 -29.158224 -152.171685 -12.880455 1.774897 -48.188043 8.552452 18.042441 54.750399 6.011929 -7.667952 8.344244 0.000100 -0.059700 -0.163900 3.727410 -5.095447 -37.571627 -15.394155 -18.902237 67.333911 6.063077 -17.240929 13.796524 -2.679600 10.157400 -29.488000 -0.276701 0.826284 -4.486370 -2.447669 0.529868 -11.564045 6.082666 -4.728777 -9.825158 2.352400 -2.914600 -3.142200 -80.144050 11.613428 55.914619 52.419666 -50.559568 -33.466761 -2.049308 -0.035732 -8.361825 -7.125000 0.000000 0.000000 86.706845 -1.153961 37.895727 -51.347848 48.211768 -34.529913 3.197834 1.722942 -14.770141 7.125000 0.000000 0.000000 
